<svg xmlns="http://www.w3.org/2000/svg" xmlns:xlink="http://www.w3.org/1999/xlink" width="150" zoomAndPan="magnify" viewBox="0 0 112.5 30.000001" height="40" preserveAspectRatio="xMidYMid meet" version="1.0"><defs><g/><clipPath id="fc754cf119"><path d="M 2 8 L 20 8 L 20 26 L 2 26 Z M 2 8 " clip-rule="nonzero"/></clipPath><clipPath id="12da2065a9"><path d="M 7.746094 1.855469 L 23.277344 5.863281 L 18.179688 25.628906 L 2.648438 21.621094 Z M 7.746094 1.855469 " clip-rule="nonzero"/></clipPath><clipPath id="7512bdae9e"><path d="M 7.746094 1.855469 L 23.277344 5.863281 L 18.179688 25.628906 L 2.648438 21.621094 Z M 7.746094 1.855469 " clip-rule="nonzero"/></clipPath><clipPath id="ec961bdfa7"><path d="M 7.746094 1.855469 L 23.277344 5.863281 L 18.179688 25.628906 L 2.648438 21.621094 Z M 7.746094 1.855469 " clip-rule="nonzero"/></clipPath><clipPath id="db3ef6e3a7"><path d="M 11 2 L 20 2 L 20 8 L 11 8 Z M 11 2 " clip-rule="nonzero"/></clipPath><clipPath id="beacd6c4b2"><path d="M 7.746094 1.855469 L 23.277344 5.863281 L 18.179688 25.628906 L 2.648438 21.621094 Z M 7.746094 1.855469 " clip-rule="nonzero"/></clipPath><clipPath id="3487a004b6"><path d="M 7.746094 1.855469 L 23.277344 5.863281 L 18.179688 25.628906 L 2.648438 21.621094 Z M 7.746094 1.855469 " clip-rule="nonzero"/></clipPath><clipPath id="6cb768cb88"><path d="M 7.746094 1.855469 L 23.277344 5.863281 L 18.179688 25.628906 L 2.648438 21.621094 Z M 7.746094 1.855469 " clip-rule="nonzero"/></clipPath><clipPath id="68150128ba"><path d="M 11 8 L 16 8 L 16 12 L 11 12 Z M 11 8 " clip-rule="nonzero"/></clipPath><clipPath id="1906ecfdf3"><path d="M 7.746094 1.855469 L 23.277344 5.863281 L 18.179688 25.628906 L 2.648438 21.621094 Z M 7.746094 1.855469 " clip-rule="nonzero"/></clipPath><clipPath id="7b81884e07"><path d="M 7.746094 1.855469 L 23.277344 5.863281 L 18.179688 25.628906 L 2.648438 21.621094 Z M 7.746094 1.855469 " clip-rule="nonzero"/></clipPath><clipPath id="b7aee3ccb8"><path d="M 7.746094 1.855469 L 23.277344 5.863281 L 18.179688 25.628906 L 2.648438 21.621094 Z M 7.746094 1.855469 " clip-rule="nonzero"/></clipPath><clipPath id="8efdd7406c"><path d="M 8 11 L 16 11 L 16 23 L 8 23 Z M 8 11 " clip-rule="nonzero"/></clipPath><clipPath id="7f11f93aa4"><path d="M 7.746094 1.855469 L 23.277344 5.863281 L 18.179688 25.628906 L 2.648438 21.621094 Z M 7.746094 1.855469 " clip-rule="nonzero"/></clipPath><clipPath id="3576ea762f"><path d="M 7.746094 1.855469 L 23.277344 5.863281 L 18.179688 25.628906 L 2.648438 21.621094 Z M 7.746094 1.855469 " clip-rule="nonzero"/></clipPath><clipPath id="bda0c6a4b2"><path d="M 7.746094 1.855469 L 23.277344 5.863281 L 18.179688 25.628906 L 2.648438 21.621094 Z M 7.746094 1.855469 " clip-rule="nonzero"/></clipPath><clipPath id="27900b0f17"><path d="M 12 6 L 17 6 L 17 10 L 12 10 Z M 12 6 " clip-rule="nonzero"/></clipPath><clipPath id="b2c001e63c"><path d="M 7.746094 1.855469 L 23.277344 5.863281 L 18.179688 25.628906 L 2.648438 21.621094 Z M 7.746094 1.855469 " clip-rule="nonzero"/></clipPath><clipPath id="1431998f8b"><path d="M 7.746094 1.855469 L 23.277344 5.863281 L 18.179688 25.628906 L 2.648438 21.621094 Z M 7.746094 1.855469 " clip-rule="nonzero"/></clipPath><clipPath id="504cb326ae"><path d="M 7.746094 1.855469 L 23.277344 5.863281 L 18.179688 25.628906 L 2.648438 21.621094 Z M 7.746094 1.855469 " clip-rule="nonzero"/></clipPath></defs><g clip-path="url(#fc754cf119)"><g clip-path="url(#12da2065a9)"><g clip-path="url(#7512bdae9e)"><g clip-path="url(#ec961bdfa7)"><path fill="#70a9ed" d="M 3.109375 21.742188 L 17.71875 25.511719 C 17.992188 25.582031 18.222656 25.441406 18.296875 25.15625 L 18.804688 23.179688 C 18.867188 22.945312 18.835938 22.6875 18.703125 22.449219 L 18.234375 21.628906 L 19.324219 17.390625 C 20.332031 13.484375 18.085938 9.542969 14.300781 8.566406 C 10.511719 7.589844 6.636719 9.953125 5.628906 13.859375 L 4.539062 18.09375 L 3.730469 18.589844 C 3.496094 18.730469 3.347656 18.941406 3.285156 19.175781 L 2.773438 21.152344 C 2.703125 21.4375 2.835938 21.671875 3.109375 21.742188 Z M 3.109375 21.742188 " fill-opacity="1" fill-rule="nonzero"/></g></g></g></g><g clip-path="url(#db3ef6e3a7)"><g clip-path="url(#beacd6c4b2)"><g clip-path="url(#3487a004b6)"><g clip-path="url(#6cb768cb88)"><path fill="#70a9ed" d="M 13.414062 6.332031 L 11.40625 2.800781 L 19.621094 4.921875 L 16.152344 7.035156 Z M 13.414062 6.332031 " fill-opacity="1" fill-rule="nonzero"/></g></g></g></g><g clip-path="url(#68150128ba)"><g clip-path="url(#1906ecfdf3)"><g clip-path="url(#7b81884e07)"><g clip-path="url(#b7aee3ccb8)"><path fill="#417ace" d="M 15.0625 11.273438 C 14.789062 11.203125 14.652344 10.964844 14.726562 10.683594 C 14.957031 9.789062 14.414062 9.25 14.164062 9.082031 C 13.867188 9.105469 13.132812 9.320312 12.902344 10.214844 C 12.828125 10.496094 12.597656 10.636719 12.324219 10.566406 C 12.046875 10.496094 11.914062 10.261719 11.988281 9.976562 C 12.363281 8.519531 13.640625 8.09375 14.285156 8.058594 C 14.375 8.082031 14.421875 8.09375 14.511719 8.121094 C 15.070312 8.414062 15.980469 9.402344 15.59375 10.90625 C 15.566406 11.203125 15.335938 11.34375 15.0625 11.273438 Z M 15.0625 11.273438 " fill-opacity="1" fill-rule="nonzero"/></g></g></g></g><g clip-path="url(#8efdd7406c)"><g clip-path="url(#7f11f93aa4)"><g clip-path="url(#3576ea762f)"><g clip-path="url(#bda0c6a4b2)"><path fill="#e0e9f5" d="M 14.515625 17.15625 L 10.410156 16.09375 L 10.894531 14.214844 L 15.003906 15.273438 C 15.277344 15.34375 15.507812 15.203125 15.582031 14.921875 C 15.652344 14.636719 15.519531 14.402344 15.246094 14.332031 L 13.421875 13.859375 L 13.785156 12.449219 C 13.855469 12.167969 13.722656 11.929688 13.449219 11.859375 C 13.175781 11.789062 12.945312 11.929688 12.871094 12.214844 L 12.507812 13.625 L 10.679688 13.152344 C 10.40625 13.082031 10.175781 13.226562 10.101562 13.507812 L 9.375 16.332031 C 9.300781 16.613281 9.4375 16.847656 9.710938 16.917969 L 13.816406 17.980469 L 13.332031 19.863281 L 9.222656 18.800781 C 8.949219 18.730469 8.71875 18.871094 8.644531 19.15625 C 8.574219 19.4375 8.707031 19.671875 8.980469 19.742188 L 10.808594 20.214844 L 10.441406 21.625 C 10.371094 21.90625 10.503906 22.144531 10.777344 22.214844 C 11.050781 22.285156 11.285156 22.144531 11.355469 21.859375 L 11.71875 20.449219 L 13.546875 20.921875 C 13.820312 20.992188 14.050781 20.851562 14.125 20.566406 L 14.851562 17.742188 C 14.925781 17.460938 14.792969 17.226562 14.515625 17.15625 Z M 14.515625 17.15625 " fill-opacity="1" fill-rule="nonzero"/></g></g></g></g><g clip-path="url(#27900b0f17)"><g clip-path="url(#b2c001e63c)"><g clip-path="url(#1431998f8b)"><g clip-path="url(#504cb326ae)"><path fill="#b3d9ff" d="M 15.320312 9.332031 L 13.035156 8.742188 C 12.398438 8.578125 12.027344 7.929688 12.199219 7.273438 C 12.367188 6.613281 13.003906 6.222656 13.644531 6.390625 L 15.925781 6.976562 C 16.566406 7.144531 16.933594 7.789062 16.761719 8.449219 C 16.59375 9.109375 15.957031 9.496094 15.320312 9.332031 Z M 15.320312 9.332031 " fill-opacity="1" fill-rule="nonzero"/></g></g></g></g><g fill="#ffffff" fill-opacity="1"><g transform="translate(33.716424, 18.225808)"><g><path d="M 7.796875 -2.59375 L 9.015625 -8.984375 L 10.859375 -8.984375 L 8.859375 0 L 7 0 L 5.53125 -6.015625 L 4.078125 0 L 2.203125 0 L 0.21875 -8.984375 L 2.0625 -8.984375 L 3.28125 -2.609375 L 4.765625 -8.984375 L 6.328125 -8.984375 Z M 7.796875 -2.59375 "/></g></g></g><g fill="#ffffff" fill-opacity="1"><g transform="translate(44.763928, 18.225808)"><g><path d="M 3.21875 -8.984375 L 5.53125 -2.46875 L 7.828125 -8.984375 L 10.265625 -8.984375 L 10.265625 0 L 8.40625 0 L 8.40625 -2.453125 L 8.578125 -6.703125 L 6.15625 0 L 4.890625 0 L 2.46875 -6.6875 L 2.65625 -2.453125 L 2.65625 0 L 0.796875 0 L 0.796875 -8.984375 Z M 3.21875 -8.984375 "/></g></g></g><g fill="#ffffff" fill-opacity="1"><g transform="translate(55.829931, 18.225808)"><g/></g></g><g fill="#ffffff" fill-opacity="1"><g transform="translate(58.975785, 18.225808)"><g><path d="M 3.21875 -8.984375 L 5.53125 -2.46875 L 7.828125 -8.984375 L 10.265625 -8.984375 L 10.265625 0 L 8.40625 0 L 8.40625 -2.453125 L 8.578125 -6.703125 L 6.15625 0 L 4.890625 0 L 2.46875 -6.6875 L 2.65625 -2.453125 L 2.65625 0 L 0.796875 0 L 0.796875 -8.984375 Z M 3.21875 -8.984375 "/></g></g></g><g fill="#ffffff" fill-opacity="1"><g transform="translate(70.041788, 18.225808)"><g><path d="M 0.40625 -3.40625 C 0.40625 -4.0625 0.53125 -4.648438 0.78125 -5.171875 C 1.039062 -5.691406 1.410156 -6.09375 1.890625 -6.375 C 2.367188 -6.65625 2.925781 -6.796875 3.5625 -6.796875 C 4.457031 -6.796875 5.191406 -6.519531 5.765625 -5.96875 C 6.335938 -5.414062 6.65625 -4.671875 6.71875 -3.734375 L 6.734375 -3.265625 C 6.734375 -2.242188 6.445312 -1.421875 5.875 -0.796875 C 5.300781 -0.179688 4.53125 0.125 3.5625 0.125 C 2.601562 0.125 1.835938 -0.179688 1.265625 -0.796875 C 0.691406 -1.421875 0.40625 -2.265625 0.40625 -3.328125 Z M 2.1875 -3.265625 C 2.1875 -2.640625 2.304688 -2.15625 2.546875 -1.8125 C 2.785156 -1.476562 3.128906 -1.3125 3.578125 -1.3125 C 4.003906 -1.3125 4.335938 -1.476562 4.578125 -1.8125 C 4.828125 -2.144531 4.953125 -2.675781 4.953125 -3.40625 C 4.953125 -4.019531 4.828125 -4.5 4.578125 -4.84375 C 4.335938 -5.1875 4 -5.359375 3.5625 -5.359375 C 3.125 -5.359375 2.785156 -5.1875 2.546875 -4.84375 C 2.304688 -4.507812 2.1875 -3.984375 2.1875 -3.265625 Z M 2.1875 -3.265625 "/></g></g></g><g fill="#ffffff" fill-opacity="1"><g transform="translate(77.184726, 18.225808)"><g><path d="M 2.328125 -6.671875 L 2.375 -5.90625 C 2.851562 -6.5 3.492188 -6.796875 4.296875 -6.796875 C 5.003906 -6.796875 5.53125 -6.585938 5.875 -6.171875 C 6.226562 -5.765625 6.40625 -5.144531 6.40625 -4.3125 L 6.40625 0 L 4.625 0 L 4.625 -4.265625 C 4.625 -4.648438 4.539062 -4.925781 4.375 -5.09375 C 4.21875 -5.257812 3.945312 -5.34375 3.5625 -5.34375 C 3.0625 -5.34375 2.6875 -5.128906 2.4375 -4.703125 L 2.4375 0 L 0.640625 0 L 0.640625 -6.671875 Z M 2.328125 -6.671875 "/></g></g></g><g fill="#ffffff" fill-opacity="1"><g transform="translate(84.259819, 18.225808)"><g><path d="M 3.765625 0.125 C 2.785156 0.125 1.984375 -0.171875 1.359375 -0.765625 C 0.742188 -1.367188 0.4375 -2.171875 0.4375 -3.171875 L 0.4375 -3.34375 C 0.4375 -4.019531 0.566406 -4.617188 0.828125 -5.140625 C 1.085938 -5.671875 1.453125 -6.078125 1.921875 -6.359375 C 2.398438 -6.648438 2.945312 -6.796875 3.5625 -6.796875 C 4.476562 -6.796875 5.195312 -6.507812 5.71875 -5.9375 C 6.238281 -5.363281 6.5 -4.546875 6.5 -3.484375 L 6.5 -2.765625 L 2.25 -2.765625 C 2.3125 -2.328125 2.484375 -1.972656 2.765625 -1.703125 C 3.054688 -1.441406 3.425781 -1.3125 3.875 -1.3125 C 4.5625 -1.3125 5.097656 -1.5625 5.484375 -2.0625 L 6.359375 -1.078125 C 6.097656 -0.703125 5.738281 -0.40625 5.28125 -0.1875 C 4.820312 0.0195312 4.316406 0.125 3.765625 0.125 Z M 3.5625 -5.359375 C 3.207031 -5.359375 2.914062 -5.238281 2.6875 -5 C 2.46875 -4.757812 2.328125 -4.414062 2.265625 -3.96875 L 4.75 -3.96875 L 4.75 -4.109375 C 4.738281 -4.503906 4.628906 -4.8125 4.421875 -5.03125 C 4.222656 -5.25 3.9375 -5.359375 3.5625 -5.359375 Z M 3.5625 -5.359375 "/></g></g></g><g fill="#ffffff" fill-opacity="1"><g transform="translate(91.088177, 18.225808)"><g><path d="M 3.171875 -2.53125 L 4.40625 -6.671875 L 6.328125 -6.671875 L 3.640625 1.03125 L 3.5 1.390625 C 3.09375 2.265625 2.429688 2.703125 1.515625 2.703125 C 1.253906 2.703125 0.992188 2.660156 0.734375 2.578125 L 0.734375 1.234375 L 1 1.234375 C 1.332031 1.234375 1.582031 1.179688 1.75 1.078125 C 1.914062 0.972656 2.046875 0.800781 2.140625 0.5625 L 2.359375 0.015625 L 0.015625 -6.671875 L 1.9375 -6.671875 Z M 3.171875 -2.53125 "/></g></g></g></svg>